# xmcd CD database file
#
# Track frame offsets:
#	150
#	20175
#	40199
#	54150
#	68100
#	85199
#	102299
#	119474
#	136651
#	151727
#	166804
#	186979
#	207155
#	228057
#	248941
#	265591
#	282242
#	298818
#	315394
#	334321
#	353238
#
# Disc length: 4728 seconds
#
# Revision: 0
# Processed by: cddbd v1.5.2PL0 Copyright (c) Steve Scherf et al.
# Submitted via: CDex 1.51
#
DISCID=28127615
DTITLE=Hal Leonard - Benny Golson Vol 55 10 Jazz Favourites
DYEAR=1900
DGENRE=Jazz
TTITLE0=Along Came Betty (Split)
TTITLE1=Along Came Betty (Stereo)
TTITLE2=Are You Real (Split)
TTITLE3=Are You Real (Stereo)
TTITLE4=Blues March (Split)
TTITLE5=Blues March (Stereo)
TTITLE6=Five Spot After Dark (Split)
TTITLE7=Five Spot After Dark (Stereo)
TTITLE8=Gypsy Jingle-Jangle (Split)
TTITLE9=Gypsy Jingle-Jangle (Stereo)
TTITLE10=I Remember Clifford (Split)
TTITLE11=I Remember Clifford (Stereo
TTITLE12=Killer Joe (Split)
TTITLE13=Killer Joe (Stereo)
TTITLE14=Stablemates (Split)
TTITLE15=Stablemates (Stereo)
TTITLE16=Step Lightly (Split)
TTITLE17=Step Lightly (Stereo)
TTITLE18=Whisper Not (Split)
TTITLE19=Whisper Not (Stereo)
TTITLE20=Bb Tuning Notes
EXTD=
EXTT0=
EXTT1=
EXTT2=
EXTT3=
EXTT4=
EXTT5=
EXTT6=
EXTT7=
EXTT8=
EXTT9=
EXTT10=
EXTT11=
EXTT12=
EXTT13=
EXTT14=
EXTT15=
EXTT16=
EXTT17=
EXTT18=
EXTT19=
EXTT20=
PLAYORDER=
